{"accessors" : [{"bufferView" : 0, "byteOffset" : 0, "componentType" : 5123, "count" : 16566, "type" : "SCALAR", "max" : [13622], "min" : [0]}, {"bufferView" : 1, "byteOffset" : 0, "componentType" : 5126, "count" : 13623, "type" : "VEC3", "max" : [0.6082919836044312, 1.8656599521636963, 0.5841529965400696], "min" : [-0.9434210062026978, 0.33050400018692017, -0.6157910227775574], "name" : "POSITION"}, {"bufferView" : 1, "byteOffset" : 12, "componentType" : 5126, "count" : 13623, "type" : "VEC3", "max" : [0.9989150166511536, 0.9994488954544067, 0.9999556541442871], "min" : [-0.9983541369438171, -0.9999325275421143, -0.9982943534851074], "name" : "NORMAL"}], "asset" : {"generator" : "Aspose.3D 24.1.0", "version" : "2.0"}, "buffers" : [{"uri" : "data:application/octet-stream;base64,", "byteLength" : 430724}], "bufferViews" : [{"buffer" : 0, "byteOffset" : 0, "byteLength" : 33132, "target" : 34963}, {"buffer" : 0, "byteOffset" : 33136, "byteLength" : 397584, "byteStride" : 24, "target" : 34962}], "meshes" : [{"primitives" : [{"attributes" : {"POSITION" : 1, "NORMAL" : 2}, "indices" : 0, "mode" : 4}], "name" : ""}], "nodes" : [{"mesh" : 0, "name" : ""}], "scene" : 0, "scenes" : [{"nodes" : [0]}]}