{
	"asset":{
		"generator":"Khronos glTF Blender I/O v4.0.44",
		"version":"2.0"
	},
	"scene":0,
	"scenes":[
		{
			"name":"Scene",
			"nodes":[
				0
			]
		}
	],
	"nodes":[
		{
			"mesh":0,
			"name":"Model",
			"rotation":[
				-0.7071068286895752,
				0,
				0,
				0.7071068286895752
			],
			"translation":[
				0,
				0.1899999976158142,
				0
			]
		}
	],
	"materials":[
		{
			"doubleSided":true,
			"name":"material0",
			"pbrMetallicRoughness":{
				"baseColorFactor":[
					1,
					1,
					1,
					1
				],
				"metallicFactor":0,
				"roughnessFactor":0.5
			}
		}
	],
	"meshes":[
		{
			"name":"Model",
			"primitives":[
				{
					"attributes":{
						"POSITION":0,
						"NORMAL":1
					},
					"indices":2,
					"material":0
				}
			]
		}
	],
	"accessors":[
		{
			"bufferView":0,
			"componentType":5126,
			"count":145956,
			"max":[
				0.24368947744369507,
				0.23891769349575043,
				0.30761438608169556
			],
			"min":[
				-0.25801655650138855,
				-0.1916804015636444,
				-0.18619078397750854
			],
			"type":"VEC3"
		},
		{
			"bufferView":1,
			"componentType":5126,
			"count":145956,
			"type":"VEC3"
		},
		{
			"bufferView":2,
			"componentType":5125,
			"count":397476,
			"type":"SCALAR"
		}
	],
	"bufferViews":[
		{
			"buffer":0,
			"byteLength":1751472,
			"byteOffset":0,
			"target":34962
		},
		{
			"buffer":0,
			"byteLength":1751472,
			"byteOffset":1751472,
			"target":34962
		},
		{
			"buffer":0,
			"byteLength":1589904,
			"byteOffset":3502944,
			"target":34963
		}
	],
	"buffers":[
		{
			"byteLength":5092848,
			"uri":"fblock.bin"
		}
	]
}
