# Blender v2.77 (sub 0) OBJ File: 'penguinhat.blend'
# www.blender.org
o Penguin_Cylinder.002
v 0.187235 1.952872 -2.449665
v 0.178050 4.256396 -2.708300
v 1.929940 1.860464 -1.699968
v 2.281432 3.866151 -1.773555
v 2.315265 1.633979 -0.389877
v 2.800925 3.858470 -0.235264
v 0.910110 1.439484 0.953409
v 1.345338 3.858470 1.589983
v -0.515962 1.423661 0.953409
v -0.989240 3.858470 1.589983
v -1.962273 1.655457 -0.389877
v -2.444825 3.858470 -0.235264
v -1.576949 1.881941 -1.699967
v -1.925333 3.866151 -1.773555
v 0.178050 5.971606 -2.834071
v 2.449931 5.303434 -1.967723
v 2.619133 6.014108 0.541759
v 1.438848 5.520458 1.778863
v -1.082750 5.520458 1.778863
v -2.654940 6.138792 -0.093124
v -2.093832 5.303434 -1.967723
v 0.178050 7.977397 -2.686841
v 2.017413 7.157371 -2.060906
v 2.267202 8.364202 1.022025
v 1.295989 7.296633 2.064900
v -0.939891 7.296633 2.064900
v -2.333938 8.739235 1.077638
v -1.836409 7.236234 -2.060906
v 0.178050 9.316793 -2.272233
v 1.850829 8.551464 -2.046332
v 2.298868 10.062177 1.653164
v 1.107607 8.613297 2.017148
v -0.751509 8.613297 2.017148
v -2.243551 10.331377 1.653165
v -1.829859 8.810899 -2.046332
v 0.178050 10.370023 -1.709638
v 1.570354 9.626185 -1.356773
v 1.424495 11.268549 1.274140
v 0.989041 10.471034 2.031534
v -0.632942 10.471034 2.031534
v -1.660015 11.324642 1.325207
v -1.346518 9.828706 -1.296227
v 0.505879 11.560485 -0.706407
v 0.208639 12.269054 -0.054884
v -0.470181 12.127321 0.131556
v -0.783997 11.204634 -0.643357
v 0.162258 11.117373 2.249328
v -0.979426 11.229396 1.553984
v 0.754925 0.939698 -1.687757
v 1.307821 12.537187 1.951505
v 0.679353 11.777973 2.965691
v -0.325505 11.777973 2.965691
v -1.173800 12.514814 1.951505
v 0.350607 12.896914 1.337410
v 0.007139 12.896914 1.337410
v 0.378932 12.273882 3.385668
v 0.284945 11.878593 3.998802
v 0.100937 11.878593 3.998802
v -0.034530 12.273882 3.385668
v 0.203649 12.339754 3.273216
v 0.140753 12.339754 3.273216
v 1.593455 0.880902 -1.553287
v 1.800555 0.759173 -0.849154
v 1.220273 0.759173 -0.121505
v -1.607346 0.630744 -0.358626
v -1.196742 0.872088 -1.754669
v -2.520903 8.934669 0.152255
v -2.321081 8.331019 -1.108278
v -2.511448 9.538325 0.383404
v -2.345297 8.927655 -1.102425
v -2.766802 7.976248 0.093060
v -2.622313 7.539758 -0.818413
v -2.916965 6.372932 0.814510
v -2.660400 5.597871 -0.803962
v -3.140182 5.979478 0.306787
v -3.065672 5.754391 -0.163238
v -2.914192 4.319065 1.324489
v -2.755124 3.838533 0.321049
v -3.052585 4.075127 1.009705
v -3.006390 3.935574 0.718293
v -2.837253 3.351097 1.525184
v -2.769232 3.145608 1.096086
v -2.896434 3.246782 1.390574
v -2.876680 3.187105 1.265958
v 2.938519 5.510453 -0.375481
v 3.157006 6.123558 0.914805
v 3.127772 5.344454 -0.611143
v 3.409050 5.910242 0.688565
v 3.187233 3.500109 0.772055
v 3.273662 3.742640 1.282464
v 3.262097 3.434444 0.678832
v 3.373365 3.658257 1.192968
v -0.380247 0.811695 -1.754668
v 0.296929 1.022406 -2.398050
v 0.791438 0.137357 -1.737674
v -0.197398 0.026074 -1.796378
v 0.403442 0.109103 -3.161055
v 0.542460 -0.139703 -2.975409
v 0.264476 -0.170987 -2.991911
v -0.691417 0.571785 -0.308838
v 0.777292 0.928683 -1.642628
v 1.657929 0.891882 -1.508600
v 1.792757 0.805121 -1.089188
v 1.090811 0.779464 -0.195068
v 0.759377 0.307149 -1.570645
v 1.640014 0.270349 -1.436617
v 1.771859 0.080087 -1.005218
v 1.069913 0.054430 -0.111098
v 1.754995 0.568175 0.986199
v 0.993743 0.615231 1.273882
v 1.743475 0.168519 1.032485
v 0.982224 0.215575 1.320168
v -1.522238 0.102849 -0.444038
v -1.111634 0.344193 -1.840081
v -0.295138 0.283799 -1.840081
v -0.606309 0.043890 -0.394251
v -1.499263 0.738995 1.114940
v -0.583334 0.680035 1.164727
v -1.414155 0.211099 1.029527
v -0.498225 0.152140 1.079315
v -1.288763 0.513288 1.591803
v -0.816189 0.482867 1.617491
v -1.244851 0.240920 1.547734
v -0.772277 0.210500 1.573422
vt 0.420838 0.294506
vt 0.413283 0.284767
vt 0.421610 0.288936
vt 0.422129 0.275928
vt 0.425270 0.286999
vt 0.438948 0.282333
vt 0.429381 0.289320
vt 0.430248 0.293326
vt 0.438462 0.297210
vt 0.428108 0.297461
vt 0.397242 0.277394
vt 0.438194 0.234349
vt 0.431014 0.305306
vt 0.424700 0.298040
vt 0.422489 0.304556
vt 0.426204 0.290463
vt 0.424616 0.289690
vt 0.396529 0.312227
vt 0.421037 0.333859
vt 0.386221 0.345849
vt 0.450608 0.303705
vt 0.437120 0.319754
vt 0.410643 0.299761
vt 0.462764 0.275944
vt 0.420995 0.314507
vt 0.448185 0.343602
vt 0.441452 0.355117
vt 0.438571 0.350130
vt 0.467569 0.319981
vt 0.511373 0.287218
vt 0.113878 0.236837
vt 0.798993 0.095568
vt 0.637627 0.785836
vt 0.488961 0.392525
vt 0.529927 0.351686
vt 0.476572 0.343463
vt 0.420051 0.353907
vt 0.397887 0.373266
vt 0.453873 0.361923
vt 0.333068 0.392654
vt 0.396806 0.418792
vt 0.424123 0.368469
vt 0.471016 0.371455
vt 0.466202 0.405604
vt 0.415843 0.388069
vt 0.454838 0.376662
vt 0.436661 0.397915
vt 0.445859 0.391979
vt 0.448393 0.393916
vt 0.423751 0.290470
vt 0.463574 0.380469
vt 0.435248 0.388576
vt 0.458452 0.386196
vt 0.461091 0.387439
vt 0.456442 0.391947
vt 0.469809 0.387789
vt 0.455677 0.389830
vt 0.460328 0.392166
vt 0.460206 0.389327
vt 0.460513 0.389411
vt 0.461737 0.390221
vt 0.460490 0.389072
vt 0.460475 0.389180
vt 0.460238 0.389100
vt 0.460336 0.388840
vt 0.423783 0.292219
vt 0.425382 0.295795
vt 0.427170 0.295336
vt 0.430255 0.352285
vt 0.428372 0.347479
vt 0.431029 0.341245
vt 0.433337 0.338248
vt 0.435896 0.342917
vt 0.432968 0.337955
vt 0.433251 0.338049
vt 0.433249 0.338049
vt 0.433173 0.338147
vt 0.433812 0.338202
vt 0.433250 0.338049
vt 0.433250 0.338049
vt 0.433250 0.338049
vt 0.433250 0.338050
vt 0.433250 0.338049
vt 0.433250 0.338049
vt 0.216996 0.497919
vt 0.211903 0.492122
vt 0.211916 0.492063
vt 0.211899 0.492038
vt 0.211933 0.492019
vt 0.210993 0.485206
vt 0.206096 0.486833
vt 0.213235 0.509773
vt 0.215236 0.707682
vt 0.424477 0.294303
vt 0.423883 0.293459
vt 0.423757 0.293260
vt 0.423684 0.293403
vt 0.423674 0.293386
vt 0.423301 0.293521
vt 0.423666 0.293400
vt 0.426621 0.295088
vt 0.427134 0.293976
vt 0.425081 0.290355
vt 0.424729 0.290559
vt 0.425074 0.290807
vt 0.424932 0.291134
vt 0.425366 0.290633
vt 0.425143 0.290596
vt 0.425010 0.290631
vt 0.425253 0.290631
vt 0.425258 0.290608
vt 0.425260 0.290609
vt 0.425261 0.290609
vt 0.425260 0.290603
vt 0.426549 0.294492
vt 0.425504 0.295094
vt 0.425418 0.294617
vt 0.426972 0.294740
vt 0.426984 0.294745
vt 0.426979 0.294750
vt 0.426973 0.294766
vt 0.426993 0.294764
vt 0.426981 0.294751
vt 0.426980 0.294754
vt 0.426982 0.294754
vn 0.007400 -0.198200 -0.980100
vn 0.730300 -0.162800 -0.663400
vn 0.689500 -0.258200 -0.676600
vn 0.977300 -0.133800 0.163900
vn 0.897500 -0.391400 0.202900
vn 0.414900 -0.203700 0.886700
vn 0.293900 -0.549800 0.781900
vn -0.261300 -0.533200 0.804600
vn -0.421600 -0.198000 0.884900
vn -0.939400 -0.287900 0.185900
vn 0.788400 0.020800 -0.614800
vn 0.951200 0.038500 0.306200
vn -0.969500 -0.169000 0.177500
vn -0.704400 -0.222500 -0.674000
vn -0.730000 -0.163400 -0.663600
vn 0.289300 -0.897300 0.333400
vn 0.496600 -0.866000 -0.058400
vn 0.006300 -0.000500 -1.000000
vn -0.631600 0.025300 -0.774800
vn 0.024300 0.149100 -0.988500
vn -0.446700 -0.117700 0.886900
vn -0.988700 0.002700 0.149700
vn -0.000300 -0.109800 -0.993900
vn 0.419800 -0.120700 0.899500
vn -0.737800 -0.053200 -0.673000
vn -0.815100 -0.067400 0.575300
vn -0.902100 0.412300 -0.127100
vn -0.994300 0.106300 -0.002400
vn -0.361000 -0.069800 0.929900
vn 0.387300 -0.028600 0.921500
vn 0.661100 0.061000 -0.747800
vn 0.094000 -0.264200 0.959900
vn 0.816200 0.297800 0.495100
vn 0.277800 0.183800 0.942900
vn 0.287400 -0.016100 0.957600
vn -0.222700 -0.000500 0.974900
vn -0.591200 0.331200 -0.735300
vn 0.043400 0.440000 -0.896900
vn -0.792100 0.293400 0.535200
vn 0.656200 0.315900 -0.685200
vn 0.689100 0.505200 -0.519400
vn -0.579400 0.582400 -0.570100
vn -0.212400 0.118000 0.970000
vn 0.898400 0.427100 0.101700
vn 0.028100 0.541500 -0.840200
vn -0.810000 0.523100 0.264900
vn 0.356800 0.693000 -0.626400
vn -0.512400 0.719700 -0.468500
vn 0.209300 0.784000 -0.584400
vn 0.402000 -0.841000 -0.362100
vn -0.470800 -0.012300 0.882100
vn -0.531300 0.604700 -0.593300
vn -0.813600 0.564900 0.137900
vn -0.595400 -0.547600 0.587800
vn 0.322300 0.931400 -0.169100
vn 0.028700 -0.527900 0.848800
vn -0.235600 0.964300 -0.120600
vn 0.822000 0.566900 0.054400
vn 0.054900 0.919800 0.388400
vn 0.488900 0.713600 0.501800
vn 0.649400 -0.515700 0.558800
vn -0.394800 -0.205200 0.895500
vn 0.415200 -0.201300 0.887100
vn -0.052400 0.919600 0.389400
vn -0.487400 0.695100 0.528500
vn 0.517800 -0.736900 -0.434500
vn -0.558700 -0.066000 -0.826700
vn -0.988500 -0.103200 0.110000
vn -0.854100 0.370400 -0.365100
vn -0.920300 0.077200 -0.383600
vn -0.906900 0.132400 -0.399900
vn -0.994900 0.087400 0.050000
vn -0.975200 0.221000 -0.013800
vn 0.204000 -0.556100 -0.805600
vn 0.094600 0.235900 0.967100
vn 0.320400 -0.593300 -0.738400
vn -0.936900 -0.055000 -0.345200
vn -0.039900 0.055700 0.997600
vn -0.925100 -0.262500 -0.274100
vn 0.360300 -0.866900 -0.344500
vn -0.472400 -0.866500 0.161400
vn -0.988200 -0.056700 0.142500
vn 0.160100 -0.172600 0.971900
vn -0.529900 -0.701900 0.475900
vn 0.972100 0.142800 0.185900
vn -0.265300 -0.217900 0.939200
vn 0.638400 -0.598400 0.484100
vn -0.794900 -0.592500 0.130900
vn 0.181400 -0.887200 -0.424200
vn 0.305500 -0.483800 -0.820100
vn -0.933000 -0.358700 -0.027000
vn -0.193300 -0.171100 0.966100
vn -0.069100 -0.478600 -0.875300
vn -0.708600 -0.573000 0.411700
vn 0.744400 -0.418000 0.520700
vn -0.540700 -0.699100 -0.467800
vn 0.710100 -0.595400 -0.375700
vn 0.129100 0.145600 -0.980900
vn 0.053100 0.269100 -0.961600
vn -0.685400 -0.719200 -0.113500
vn 0.826800 -0.418300 0.375900
vn 0.773100 0.633900 -0.019300
vn 0.313900 0.740000 -0.594800
vn -0.657300 -0.495500 -0.567800
vn -0.495300 -0.827400 -0.264800
vn -0.601500 0.786500 0.140200
vn 0.650600 -0.731500 -0.204000
vn 0.518900 -0.497000 -0.695500
vn -0.647600 -0.760400 0.048500
vn 0.644200 -0.564400 0.516200
vn -0.504700 -0.467700 0.725600
vn -0.485100 0.582800 0.651900
vn 0.696400 0.548400 0.462800
vn 0.669600 -0.742500 0.017100
vn -0.453300 -0.487100 -0.746500
vn 0.673800 -0.454400 -0.582700
vn 0.764500 -0.617300 0.185400
vn 0.668600 0.705700 0.234300
vn 0.407100 -0.605400 0.684000
vn -0.675100 -0.717800 0.170400
vn -0.701900 0.666000 0.252200
vn 0.366100 0.391500 0.844200
vn -0.461400 -0.642500 0.611800
vn -0.503500 0.351500 0.789300
s 1
f 1/1/1 4/2/2 3/3/3
f 3/3/3 6/4/4 5/5/5
f 5/5/5 8/6/6 7/7/7
f 8/6/6 9/8/8 7/7/7
f 10/9/9 11/10/10 9/8/8
f 6/4/4 16/11/11 17/12/12
f 12/13/13 13/14/14 11/10/10
f 14/15/15 1/1/1 13/14/14
f 5/5/5 64/16/16 63/17/17
f 15/18/18 28/19/19 22/20/20
f 12/13/13 19/21/21 20/22/22
f 2/23/23 16/11/11 4/2/2
f 8/6/6 17/12/12 18/24/24
f 12/13/13 21/25/25 14/15/15
f 8/6/6 19/21/21 10/9/9
f 2/23/23 21/25/25 15/18/18
f 27/26/26 69/27/27 67/28/28
f 20/22/22 26/29/29 27/26/26
f 17/12/12 25/30/30 18/24/24
f 15/18/18 23/31/31 16/11/11
f 20/22/22 28/19/19 21/25/25
f 18/24/24 26/29/29 19/21/21
f 17/12/12 23/31/31 24/32/32
f 31/33/33 39/34/34 32/35/35
f 25/30/30 33/36/36 26/29/29
f 22/20/20 35/37/37 29/38/38
f 27/26/26 33/36/36 34/39/39
f 24/32/32 32/35/35 25/30/30
f 22/20/20 30/40/40 23/31/31
f 29/38/38 37/41/41 30/40/40
f 34/39/39 42/42/42 35/37/37
f 32/35/35 40/43/43 33/36/36
f 31/33/33 37/41/41 38/44/44
f 29/38/38 42/42/42 36/45/45
f 34/39/39 40/43/43 41/46/46
f 43/47/47 45/48/48 44/49/49
f 3/3/3 63/17/17 62/50/50
f 41/46/46 40/43/43 48/51/51
f 43/47/47 38/44/44 37/41/41
f 41/46/46 46/52/52 42/42/42
f 37/41/41 36/45/45 43/47/47
f 42/42/42 46/52/52 36/45/45
f 46/52/52 43/47/47 36/45/45
f 53/53/53 48/51/51 52/54/54
f 54/55/55 38/44/44 44/49/49
f 40/43/43 47/56/56 48/51/51
f 44/49/49 55/57/57 54/55/55
f 50/58/58 60/59/59 56/60/60
f 51/61/61 58/62/62 52/54/54
f 55/57/57 60/59/59 54/55/55
f 47/56/56 52/54/54 48/51/51
f 57/63/63 56/60/60 60/59/59
f 58/62/62 61/64/64 59/65/65
f 57/63/63 61/64/64 58/62/62
f 52/54/54 59/65/65 53/53/53
f 51/61/61 56/60/60 57/63/63
f 53/53/53 61/64/64 55/57/57
f 41/46/46 55/57/57 45/48/48
f 3/3/3 49/66/66 1/1/1
f 11/10/10 66/67/67 65/68/68
f 38/44/44 51/61/61 47/56/56
f 39/34/34 38/44/44 47/56/56
f 67/28/28 70/69/69 68/70/70
f 35/37/37 69/27/27 34/39/39
f 35/37/37 68/70/70 70/69/69
f 72/71/71 75/72/72 71/73/73
f 74/74/74 77/75/75 78/76/76
f 72/71/71 74/74/74 76/77/77
f 71/73/73 73/78/78 27/26/26
f 28/19/19 73/78/78 74/74/74
f 80/79/79 82/80/80 84/81/81
f 76/77/77 78/76/76 80/79/79
f 76/77/77 79/82/82 75/72/72
f 75/72/72 77/75/75 73/78/78
f 81/83/83 84/81/81 82/80/80
f 79/82/82 84/81/81 83/84/84
f 79/82/82 81/83/83 77/75/75
f 77/75/75 82/80/80 78/76/76
f 27/26/26 67/28/28 71/73/73
f 68/70/70 71/73/73 67/28/28
f 28/19/19 72/71/71 68/70/70
f 88/85/85 90/86/86 92/87/87
f 89/88/88 92/87/87 90/86/86
f 88/85/85 91/89/89 87/90/90
f 87/90/90 89/88/88 85/91/91
f 85/91/91 90/86/86 86/92/92
f 85/91/91 24/93/32 23/31/31
f 30/40/40 88/85/85 87/90/90
f 30/40/40 87/90/90 23/31/31
f 85/91/91 23/31/31 87/90/90
f 88/85/85 31/33/33 86/92/92
f 93/94/93 13/14/14 1/1/1
f 49/66/66 96/95/94 95/96/95
f 95/96/95 99/97/96 98/98/97
f 93/94/93 94/99/98 96/95/94
f 49/66/66 94/99/98 1/1/1
f 97/100/99 98/98/97 99/97/96
f 94/99/98 99/97/96 96/95/94
f 94/99/98 98/98/97 97/100/99
f 66/67/67 113/101/100 65/68/68
f 9/8/8 65/68/68 100/102/101
f 64/16/16 103/103/102 63/17/17
f 102/104/103 105/105/104 101/106/105
f 62/50/50 101/106/105 49/66/66
f 63/17/17 102/104/103 62/50/50
f 64/16/16 101/106/105 104/107/106
f 107/108/107 105/105/104 106/109/108
f 108/110/109 111/111/110 112/112/111
f 104/107/106 105/105/104 108/110/109
f 103/103/102 106/109/108 102/104/103
f 110/113/112 111/111/110 109/114/113
f 107/108/107 109/114/113 111/111/110
f 104/107/106 109/114/113 103/103/102
f 108/110/109 110/113/112 104/107/106
f 116/115/114 114/116/115 115/117/116
f 93/94/93 116/115/114 115/117/116
f 93/94/93 114/116/115 66/67/67
f 100/102/101 120/118/117 116/115/114
f 118/119/118 124/120/119 120/118/117
f 116/115/114 119/121/120 113/101/100
f 65/68/68 119/121/120 117/122/121
f 100/102/101 117/122/121 118/119/118
f 122/123/122 123/124/123 124/120/119
f 119/121/120 124/120/119 123/124/123
f 119/121/120 121/125/124 117/122/121
f 118/119/118 121/125/124 122/123/122
f 100/102/101 64/16/16 9/8/8
f 86/92/92 31/33/33 24/93/32
f 1/1/1 2/23/23 4/2/2
f 3/3/3 4/2/2 6/4/4
f 5/5/5 6/4/4 8/6/6
f 8/6/6 10/9/9 9/8/8
f 10/9/9 12/13/13 11/10/10
f 6/4/4 4/2/2 16/11/11
f 12/13/13 14/15/15 13/14/14
f 14/15/15 2/23/23 1/1/1
f 5/5/5 7/7/7 64/16/16
f 15/18/18 21/25/25 28/19/19
f 12/13/13 10/9/9 19/21/21
f 2/23/23 15/18/18 16/11/11
f 8/6/6 6/4/4 17/12/12
f 12/13/13 20/22/22 21/25/25
f 8/6/6 18/24/24 19/21/21
f 2/23/23 14/15/15 21/25/25
f 27/26/26 34/39/39 69/27/27
f 20/22/22 19/21/21 26/29/29
f 17/12/12 24/32/32 25/30/30
f 15/18/18 22/20/20 23/31/31
f 20/22/22 27/26/26 28/19/19
f 18/24/24 25/30/30 26/29/29
f 17/12/12 16/11/11 23/31/31
f 31/33/33 38/44/44 39/34/34
f 25/30/30 32/35/35 33/36/36
f 22/20/20 28/19/19 35/37/37
f 27/26/26 26/29/29 33/36/36
f 24/32/32 31/33/33 32/35/35
f 22/20/20 29/38/38 30/40/40
f 29/38/38 36/45/45 37/41/41
f 34/39/39 41/46/46 42/42/42
f 32/35/35 39/34/34 40/43/43
f 31/33/33 30/40/40 37/41/41
f 29/38/38 35/37/37 42/42/42
f 34/39/39 33/36/36 40/43/43
f 43/47/47 46/52/52 45/48/48
f 3/3/3 5/5/5 63/17/17
f 43/47/47 44/49/49 38/44/44
f 41/46/46 45/48/48 46/52/52
f 53/53/53 41/46/46 48/51/51
f 54/55/55 50/58/58 38/44/44
f 40/43/43 39/34/34 47/56/56
f 44/49/49 45/48/48 55/57/57
f 50/58/58 54/55/55 60/59/59
f 51/61/61 57/63/63 58/62/62
f 55/57/57 61/64/64 60/59/59
f 47/56/56 51/61/61 52/54/54
f 57/63/63 60/59/59 61/64/64
f 52/54/54 58/62/62 59/65/65
f 51/61/61 50/58/58 56/60/60
f 53/53/53 59/65/65 61/64/64
f 41/46/46 53/53/53 55/57/57
f 3/3/3 62/50/50 49/66/66
f 11/10/10 13/14/14 66/67/67
f 38/44/44 50/58/58 51/61/61
f 67/28/28 69/27/27 70/69/69
f 35/37/37 70/69/69 69/27/27
f 35/37/37 28/19/19 68/70/70
f 72/71/71 76/77/77 75/72/72
f 74/74/74 73/78/78 77/75/75
f 72/71/71 28/19/19 74/74/74
f 71/73/73 75/72/72 73/78/78
f 28/19/19 27/26/26 73/78/78
f 80/79/79 78/76/76 82/80/80
f 76/77/77 74/74/74 78/76/76
f 76/77/77 80/79/79 79/82/82
f 75/72/72 79/82/82 77/75/75
f 81/83/83 83/84/84 84/81/81
f 79/82/82 80/79/79 84/81/81
f 79/82/82 83/84/84 81/83/83
f 77/75/75 81/83/83 82/80/80
f 68/70/70 72/71/71 71/73/73
f 88/85/85 86/92/92 90/86/86
f 89/88/88 91/89/89 92/87/87
f 88/85/85 92/87/87 91/89/89
f 87/90/90 91/89/89 89/88/88
f 85/91/91 89/88/88 90/86/86
f 85/91/91 86/92/92 24/93/32
f 30/40/40 31/33/33 88/85/85
f 93/94/93 66/67/67 13/14/14
f 49/66/66 93/94/93 96/95/94
f 95/96/95 96/95/94 99/97/96
f 93/94/93 1/1/1 94/99/98
f 49/66/66 95/96/95 94/99/98
f 94/99/98 97/100/99 99/97/96
f 94/99/98 95/96/95 98/98/97
f 66/67/67 114/116/115 113/101/100
f 9/8/8 11/10/10 65/68/68
f 64/16/16 104/107/106 103/103/102
f 102/104/103 106/109/108 105/105/104
f 62/50/50 102/104/103 101/106/105
f 63/17/17 103/103/102 102/104/103
f 64/16/16 49/66/66 101/106/105
f 107/108/107 108/110/109 105/105/104
f 108/110/109 107/108/107 111/111/110
f 104/107/106 101/106/105 105/105/104
f 103/103/102 107/108/107 106/109/108
f 110/113/112 112/112/111 111/111/110
f 107/108/107 103/103/102 109/114/113
f 104/107/106 110/113/112 109/114/113
f 108/110/109 112/112/111 110/113/112
f 116/115/114 113/101/100 114/116/115
f 93/94/93 100/102/101 116/115/114
f 93/94/93 115/117/116 114/116/115
f 100/102/101 118/119/118 120/118/117
f 118/119/118 122/123/122 124/120/119
f 116/115/114 120/118/117 119/121/120
f 65/68/68 113/101/100 119/121/120
f 100/102/101 65/68/68 117/122/121
f 122/123/122 121/125/124 123/124/123
f 119/121/120 120/118/117 124/120/119
f 119/121/120 123/124/123 121/125/124
f 118/119/118 117/122/121 121/125/124
f 7/7/7 9/8/8 64/16/16
f 100/102/101 93/94/93 49/66/66
f 49/66/66 64/16/16 100/102/101
